<?xml version="1.0" encoding="utf-8" ?>
<svg xmlns="http://www.w3.org/2000/svg" xmlns:xlink="http://www.w3.org/1999/xlink" width="1024" height="1024">
	<path fill="#172E3D" d="M0 0L147.459 0C152.161 2.32381 157.077 4.18222 161.728 6.606C175.071 13.5592 186.831 24.1881 191.752 38.7536C192.798 41.849 193.307 45.0286 193.755 48.254C189.77 50.1438 118.598 49.1411 106.038 50.0558C112.819 72.2411 116.639 93.8328 116.499 117.05C106.784 122.634 73.4161 138.39 67.5189 144.601C59.9611 152.561 54.4693 188.626 45.1082 194.704C40.6988 197.567 32.6377 197.906 27.5294 198.129C22.3723 180.639 13.9412 146.755 0 134.838L0 0Z"/>
	<path fill="#F3C986" d="M147.459 0L149.356 0C166.229 4.72845 181.723 10.1587 190.817 26.3175C195.927 35.3989 195.261 38.2957 194.279 48.2058L193.755 48.254C193.307 45.0286 192.798 41.849 191.752 38.7536C186.831 24.1881 175.071 13.5592 161.728 6.606C157.077 4.18222 152.161 2.32381 147.459 0Z"/>
	<path fill="#172E3D" d="M149.356 0L995.351 0C986.145 6.25488 979.044 12.6799 972.996 22.0627C982.923 12.9313 993.106 6.23612 1005.04 0L1024 0L1024 179.686C987.35 157.684 972.931 129.76 962.926 89.5728C961.043 82.0108 956.758 56.7586 950.776 53.4046C948.659 52.2179 945.894 53.3092 943.868 54.1611C933.693 58.441 926.709 67.3499 922.673 77.3791C918.114 88.7079 906.468 143.742 908.097 154.906C910.001 167.95 917.299 177.243 916.137 192.341C913.144 205.601 909.138 217.296 901.88 228.872C899.059 221.659 895.525 214.306 894.31 206.612C891.7 190.091 902.149 176.633 899.605 164.754C898.373 159.004 893.358 153.493 889.913 148.872C882.77 139.293 876.328 127.719 875.461 115.58C873.972 94.7042 884.104 76.4579 897.485 61.1464C905.702 51.743 918.764 40.3812 931.539 38.4767C937.262 37.6234 943.363 38.0108 949.158 37.6424C939.599 34.8738 914.956 35.5073 903.669 35.1784Q856.812 33.394 809.926 32.6506C797.806 32.3571 785.702 31.6723 773.585 31.3242Q684.619 28.4523 595.62 26.8582C577.571 26.5549 559.569 25.845 541.509 25.91C531.303 24.8159 520.382 25.5302 510.098 25.484C484.309 25.1166 458.617 25.5787 432.835 25.7779Q348.332 26.0498 263.843 27.6864C251.583 27.8599 239.301 27.8384 227.046 28.1789C219.043 28.4013 210.982 29.023 202.982 29.0063C198.6 18.3309 192.571 10.8942 181.787 6.2338C190.969 13.0456 201.319 22.2059 203.124 34.218C203.651 37.7294 203.175 42.2532 200.945 45.1609C200.371 45.9099 199.652 46.5385 198.957 47.1706C197.866 47.7649 196.74 48.3258 195.695 48.9984L194.279 48.2058C195.261 38.2957 195.927 35.3989 190.817 26.3175C181.723 10.1587 166.229 4.72845 149.356 0ZM956.596 55.8033C965.416 67.7465 967.777 88.0767 971.95 102.369C976.062 116.451 981.511 129.227 989.645 141.492C993.188 146.835 997.503 153.347 1002.77 157.129C997.231 147.957 991.282 138.9 987.152 128.978C981.945 116.47 966.703 59.8675 956.596 55.8033ZM905.665 61.5235C892.934 72.7514 880.668 91.2192 879.612 108.455C879.18 115.507 880.656 122.539 883.496 128.987L884.418 130.306C885.14 129.405 884.191 124.098 884.115 122.647C883.689 114.442 884.869 106.973 887.463 99.2137C890.717 89.4825 895.307 80.0236 900.4 71.1188C901.628 68.9711 905.675 63.726 905.665 61.5235ZM905.13 170.847C901.926 186.021 894.765 201.941 901.241 217.335L902.201 217.422C903.834 209.852 909.082 177.78 905.572 171.484C905.446 171.258 905.277 171.059 905.13 170.847Z"/>
	<path fill="#F3C986" d="M995.351 0L1005.04 0C993.106 6.23612 982.923 12.9313 972.996 22.0627C979.044 12.6799 986.145 6.25488 995.351 0Z"/>
	<path fill="#F2F6E7" d="M202.982 29.0063C210.982 29.023 219.043 28.4013 227.046 28.1789C239.301 27.8384 251.583 27.8599 263.843 27.6864Q348.332 26.0496 432.835 25.7779C458.617 25.5787 484.309 25.1166 510.098 25.484C520.382 25.5302 531.303 24.8159 541.509 25.91C559.569 25.845 577.571 26.5549 595.62 26.8582Q684.619 28.4522 773.585 31.3242C785.702 31.6723 797.806 32.3571 809.926 32.6506Q856.812 33.3938 903.669 35.1784C914.956 35.5073 939.599 34.8738 949.158 37.6424C943.363 38.0108 937.262 37.6234 931.539 38.4767C918.764 40.3812 905.702 51.743 897.485 61.1464C884.104 76.4579 873.972 94.7042 875.461 115.58C876.328 127.719 882.77 139.293 889.913 148.872C893.358 153.493 898.373 159.004 899.605 164.754C902.149 176.633 891.7 190.091 894.31 206.612C895.525 214.306 899.059 221.659 901.88 228.872C898.843 234.544 891.998 243.443 893.761 250.165C894.616 253.427 897.701 255.107 900.476 256.577C906.457 259.744 915.408 261.372 917.661 268.717C920.83 279.053 907.158 280.523 927.422 293.622C925.564 296.395 924.391 298.801 925.045 302.216C926.335 308.951 934.049 312.232 935.314 319.213C936.682 326.772 930.633 335.205 933.855 341.954C935.645 347.307 937.892 350.626 943.139 353.279C959.486 361.546 979.988 352.663 995.845 347.405C1000.43 345.883 1005.56 343.775 1010.46 343.921C1014.57 344.044 1019.98 346.983 1024 348.21L1024 448.937C1011.63 455.104 981.023 470.219 972.525 479.073C965.552 486.338 948.281 537.022 943.789 550.463C938.652 565.838 934.937 582.685 927.345 597.032C922.958 605.322 916.693 612.594 911.245 620.202L872.777 673.015C868.628 678.804 863.421 684.668 860.089 690.924C860.376 719.157 870.93 745.621 884.634 769.812C888.371 776.41 892.23 783.173 896.63 789.352C879.676 790.961 861.708 789.409 844.694 788.859L769.51 786.403C755.528 786.008 741.517 785.363 727.53 785.643C724.292 785.549 715.827 779.524 712.441 777.805C704.153 773.596 693.771 769.403 684.714 767.441C669.59 764.163 645.797 765.168 630.553 767.907C625.472 769.342 620.668 771.033 616.018 773.556C610.138 772.894 604.255 772.893 598.376 772.354C591.806 771.751 585.297 770.415 578.73 769.889C571.601 769.319 564.102 769.933 556.925 770.004C549.332 770.079 541.483 769.667 533.935 770.223C535.754 771.637 563.935 771.185 568.351 770.975C575.027 769.975 581.595 770.532 588.246 771.421C580.99 772.824 574.033 771.791 566.863 772.689C562.512 774.981 543.786 772.973 538.541 772.389C536.082 772.115 532.246 771.002 529.918 771.563C540.106 776.253 557.37 774.534 568.595 774.977C569.846 775.132 571.096 775.277 572.344 775.453C577.342 776.157 582.455 775.842 587.49 776.061C593.117 776.305 598.707 777.193 604.348 776.568C606.104 776.374 611.649 775.062 612.839 776.326C612.321 776.899 611.926 777.281 611.292 777.741C609.753 779.717 608.154 781.047 606.379 782.741C600.502 784.067 584.239 785.125 578.4 784.018C576.848 784.048 574.302 783.747 572.886 784.214C573.605 784.987 574.958 785.174 575.966 785.496C572.399 785.622 567.454 784.441 564.108 785.255C565.241 786.252 568.235 785.986 569.889 786.314L569.916 786.811C564.244 787.145 558.965 786.218 553.197 787.198C553.866 786.561 554.565 785.955 555.254 785.339C539.366 789.193 521.465 791.125 505.285 788.423C502.055 786.35 490.175 786.635 486.263 787.423C484.116 787.855 482.238 788.879 480.327 789.906C487.434 790.874 494.792 790.076 501.666 792.237C493.466 792.368 473.402 790.897 466.847 792.956L466.856 793.467C473.82 796.192 499.665 791.994 508.283 794.503L508.597 795.058C501.265 800.911 488.919 799.401 480.493 802.115C477.261 803.156 470.864 803.017 467.484 802.547L466.725 802.021L466.707 800.763L466.245 800.383C465.564 801.002 464.929 802.043 464.934 803.034C464.935 803.344 465.018 803.649 465.06 803.956C465.236 803.906 465.408 803.844 465.586 803.806C468.29 803.234 480.033 803.067 482.373 804.14L482.157 804.771C480.636 805.482 479.162 806.013 477.576 806.553C476.839 806.803 477.106 806.676 476.502 807.245L477.278 807.173C478.893 807.012 480.494 806.667 482.088 806.365L481.886 806.47C482.295 806.566 482.701 806.685 483.119 806.725C482.382 807.582 481.668 808.033 480.855 808.749C480.735 808.854 480.654 808.998 480.554 809.123C486.421 807.541 492.119 805.511 498.042 804.072C505.074 802.364 512.694 801.522 519.895 800.791C525.58 800.214 539.388 801.842 543.293 800.597L543.504 799.839C542.877 799.061 542.503 798.761 541.532 798.419C538.964 797.514 535.278 798.056 532.497 797.697C530.408 797.427 528.312 796.832 526.272 796.313C531.124 796.147 535.976 795.762 540.821 795.447C545.911 796.164 562.144 792.496 565.236 794.771C563.526 795.301 561.814 795.905 560.043 796.185C554.724 798.233 549.404 800.426 544.008 802.254C538.461 804.133 531.394 804.676 526.634 808.236L526.392 808.883C527.419 810.017 528.881 810.061 530.313 810.322C532.091 811.011 534.205 811.527 535.393 813.095L535.233 815.298L536 815.885L535.873 816.525C532.626 817.361 529.869 821.608 526.518 822.063C524.666 822.315 520.865 820.482 518.692 820.306C516.833 820.154 514.766 820.612 512.93 820.911C514.875 818.735 517.059 816.751 519.154 814.72C516.75 815.622 514.298 816.38 511.725 816.595C510.4 816.705 509.372 816.84 508.368 815.954L509.312 814.724C511.341 813.025 512.919 810.88 514.58 808.831C515.73 806.948 517.069 805.146 518.317 803.325C511.808 804.993 505.398 807.154 499.003 809.21C493.379 810.456 477.29 811.651 473.773 815.966C474.716 815.906 475.655 815.858 476.6 815.836C475.911 816.765 475.665 816.821 474.693 817.372C474.067 817.728 473.371 818.083 472.914 818.657C472.349 819.366 467.649 828.458 467.483 829.105C467.44 829.274 467.426 829.449 467.398 829.622C469.285 828.877 469.784 825.75 471.417 824.322L471.895 824.693C474.598 826.045 478.527 824.464 481.356 823.739L481.559 824.512C478.217 830.135 462.345 843.739 462.781 848.99C457.37 848.868 452.252 850.939 447.185 852.612Q447.509 849.753 447.697 846.881C447.33 848.72 446.999 850.738 445.607 852.115C442.677 855.012 435.833 854.231 432.061 854.27C437.654 843.658 440.337 832.006 444.168 820.705C448.595 807.646 455.165 791.247 457.708 777.99C470.911 778.118 483.989 780.913 497.173 781.657C505.633 782.134 514.059 781.389 522.51 781.27C527.843 781.196 533.246 781.56 538.58 781.768L538.587 780.534C527.877 779.211 490.593 782.88 483.288 778.982C482.161 778.38 482.016 777.983 481.558 776.889C493.976 777.687 505.947 776.881 518.334 776.911C530.11 776.94 541.871 777.626 553.643 777.831C567.762 778.077 582.02 777.838 596.119 778.515L596.532 778.352C589.965 777.5 583.847 777.753 577.249 777.636C572.727 777.556 568.211 777.072 563.68 776.949C546.46 778.038 528.952 776.182 511.694 776.003C517.19 774.117 522.793 772.479 528.315 770.66C529.444 770.282 530.547 769.818 531.655 769.381C536.869 767.959 541.931 765.995 547.008 764.155C544.536 763.453 534.833 767.423 531.916 768.349L526.74 770.211C524.89 770.737 523.045 771.257 521.221 771.869C514.688 774.285 509.106 776.247 502.11 776.851C507.884 773.914 513.737 772.363 519.255 768.734C520.332 767.331 521.143 765.648 522.012 764.109C522.674 761.947 522.712 760.109 522.102 757.941L522.242 757.556C523.545 756.909 525.068 756.999 526.495 756.928L527.007 756.341L526.399 754.377C523.02 751.222 518.423 750.725 514.057 750.055C512.273 750.058 510.357 750.208 508.629 749.749C494.396 748.068 487.7 745.395 476.6 736.31C472.527 732.976 468.427 729.923 463.404 728.154C460.857 727.257 458.126 727.313 455.482 727.665C444.556 729.124 410.158 740.108 400.166 745.169C391.747 749.434 384.061 755.081 376.669 760.911C367.584 768.076 358.63 775.414 349.468 782.481Q274.436 782.699 199.405 782.036L168.894 627.846C163.547 600.634 157.538 573.715 151.014 546.765C148.676 537.108 147.398 526.94 144.115 517.547C138.39 501.169 114.439 478.281 101.614 466.05C96.6925 461.356 91.8417 455.715 85.6712 452.719L85.4736 452.108C84.1962 448.271 83.3144 443.521 81.2926 440.065C78.0309 428.497 71.5042 407.479 72.4732 396.05C71.3252 397.982 69.2943 400.279 68.5303 402.289C67.6364 403.608 66.4356 405.03 65.7365 406.444L52.3631 431.159C50.37 434.807 47.6946 438.7 46.1652 442.521C42.1266 448.676 39.1394 455.464 34.9605 461.573C23.3352 447.72 11.4121 434.066 0 420.047L0 330.587L41.4886 360.182C48.9036 365.556 68.2456 381.809 75.8554 384.209C75.1461 382.435 62.5866 374.418 60.2463 372.842C64.6913 365.337 69.797 358.127 74.7518 350.952C84.3694 357.645 107.675 367.135 119.546 367.068C124.907 367.038 130.208 365.198 134 361.321C142.673 352.454 139.081 341.83 139.392 331.054C139.689 320.751 145.953 314.599 152.901 307.977C153.271 306.966 153.626 306.084 153.594 304.983C153.423 298.972 140.497 294.195 136.045 291.482C133.559 289.968 131.452 288.237 129.387 286.192L131.428 285.924C136.179 286.723 146.029 288.924 150.331 288.275L150.569 285.483C155.079 286.002 161.621 287.509 165.95 285.881C167.996 285.112 168.877 283.973 169.819 282.069C169.606 276.636 165.693 269.972 167.806 264.746C171.23 256.279 180.412 261.404 188.218 258.177C188.396 258.103 188.573 258.026 188.75 257.95Q191.404 258.091 194.035 257.713C196.602 257.322 199.516 256.295 201.027 254.044C202.097 252.449 202.753 249.69 202.343 247.812C201.687 244.804 200.323 241.69 199.335 238.761Q196.681 230.834 194.471 222.773C191.191 210.46 189.365 197.913 186.537 185.517C190.573 175.226 198.443 166.021 201.694 155.519C203.645 149.216 202.954 140.52 203.244 133.882C204.047 115.489 204.682 97.2839 204.446 78.8595C204.357 71.8567 204.566 64.4578 203.707 57.5068C203.222 53.5829 202.151 49.704 198.957 47.1706C199.652 46.5385 200.371 45.9099 200.945 45.1609C203.175 42.2532 203.651 37.7294 203.124 34.218C201.319 22.2059 190.969 13.0456 181.787 6.2338C192.571 10.8942 198.6 18.3309 202.982 29.0063Z"/>
	<path fill="#F3C986" d="M195.695 48.9984C196.74 48.3258 197.866 47.7649 198.957 47.1706C202.151 49.704 203.222 53.5829 203.707 57.5068C204.566 64.4578 204.357 71.8567 204.446 78.8595C204.682 97.2839 204.047 115.489 203.244 133.882C202.954 140.52 203.645 149.216 201.694 155.519C198.443 166.021 190.573 175.226 186.537 185.517C189.365 197.913 191.191 210.46 194.471 222.773Q196.681 230.834 199.335 238.761C200.323 241.69 201.687 244.804 202.343 247.812C202.753 249.69 202.097 252.449 201.027 254.044C199.516 256.295 196.602 257.322 194.035 257.713Q191.404 258.091 188.75 257.95C189.837 257.125 190.844 256.302 191.652 255.189C193.4 252.783 194.143 249.697 193.884 246.745C193.12 238.049 189.427 228.866 187.221 220.387C184.206 208.794 182.043 197.235 180.362 185.382C182.366 180.33 185.322 175.516 187.66 170.59C190.251 165.677 193.514 160.923 193.711 155.233C195.807 126.595 197.919 97.3618 197.055 68.6587C196.861 62.2287 196.966 55.3195 195.695 48.9984Z"/>
	<path fill="#2D4D55" d="M193.755 48.254L194.279 48.2058L195.695 48.9984C196.966 55.3195 196.861 62.2287 197.055 68.6587C197.919 97.3618 195.807 126.595 193.711 155.233C186.415 148.383 166.505 143.508 156.407 143.797C142.626 144.192 127.229 152.569 117.909 162.457L117.591 162.801C140.377 155.771 153.836 155.926 176.557 162.814C180.006 163.86 184.667 164.349 187.752 165.934C187.93 166.026 188.093 166.143 188.263 166.248C187.976 167.709 187.748 169.102 187.66 170.59C185.322 175.516 182.366 180.33 180.362 185.382C182.043 197.235 184.206 208.794 187.221 220.387C189.427 228.866 193.12 238.049 193.884 246.745C194.143 249.697 193.4 252.783 191.652 255.189C190.844 256.302 189.837 257.125 188.75 257.95C188.573 258.026 188.396 258.103 188.218 258.177C180.412 261.404 171.23 256.279 167.806 264.746C165.693 269.972 169.606 276.636 169.819 282.069L169.268 282.5C164.393 286.245 159.203 285.277 153.459 284.491C145.416 283.39 121.536 279.459 117.095 273.909C116.43 273.079 115.848 272.166 115.271 271.273C114.002 271.685 113.297 272.137 112.265 272.938C113.149 276.842 132.066 290.352 135.676 292.642C138.716 294.571 151.059 300.063 152.012 302.899C152.546 304.487 152.454 306.345 152.901 307.977C145.953 314.599 139.689 320.751 139.392 331.054C139.081 341.83 142.673 352.454 134 361.321C130.208 365.198 124.907 367.038 119.546 367.068C107.675 367.135 84.3694 357.645 74.7518 350.952C69.797 358.127 64.6913 365.337 60.2463 372.842C62.5866 374.418 75.1461 382.435 75.8554 384.209C68.2456 381.809 48.9036 365.556 41.4886 360.182L0 330.587L0 134.838C13.9412 146.755 22.3723 180.639 27.5294 198.129C32.6377 197.906 40.6988 197.567 45.1082 194.704C54.4693 188.626 59.9611 152.561 67.5189 144.601C73.4161 138.39 106.784 122.634 116.499 117.05C116.639 93.8328 112.819 72.2411 106.038 50.0558C118.598 49.1411 189.77 50.1438 193.755 48.254ZM170.447 181.623C169.108 181.654 167.697 181.814 166.441 181.272C165.739 180.97 165.743 180.623 165.438 179.991C165.929 178.886 166.557 178.359 167.753 177.986C169.58 177.417 170.287 178.289 171.817 179.182C173.205 177.739 174.579 176.311 175.85 174.763C175.7 173.61 175.679 173.578 174.81 172.869C170.849 169.64 163.507 169.127 158.723 169.871C158.363 169.927 158.006 170 157.652 170.082C160.427 170.013 163.184 169.837 165.93 170.318L165.737 170.663C161.844 171.096 157.936 171.151 154.04 171.512C149.741 171.91 145.469 172.838 141.197 173.459C144.17 173.976 150.137 174.096 152.563 175.553C158.036 178.841 159.75 189.623 168.374 183.593C169.18 183.029 169.793 182.351 170.447 181.623ZM116.357 256.632C110.033 257.689 105.421 259.498 101.618 265.004C100.154 267.123 98.3098 270.665 98.788 273.298L99.6252 273.666C100.479 273.148 100.717 272.684 101.165 271.806C104.058 266.267 106.934 261.793 113.217 259.777C115.758 258.962 118.548 258.568 121.178 258.143L121.423 257.517C119.687 256.133 118.423 256.405 116.357 256.632Z"/>
	<path fill="#2D4D55" d="M916.137 192.341C917.299 177.243 910.001 167.95 908.097 154.906C906.468 143.742 918.114 88.7079 922.673 77.3791C926.709 67.3499 933.693 58.441 943.868 54.1611C945.894 53.3092 948.659 52.2179 950.776 53.4046C956.758 56.7586 961.043 82.0108 962.926 89.5728C972.931 129.76 987.35 157.684 1024 179.686L1024 348.21C1019.98 346.983 1014.57 344.044 1010.46 343.921C1005.56 343.775 1000.43 345.883 995.845 347.405C979.988 352.663 959.486 361.546 943.139 353.279C937.892 350.626 935.645 347.307 933.855 341.954C933.864 341.639 933.876 341.324 933.881 341.009C933.972 335.667 936.622 330.831 937.282 325.57C938.202 318.23 935.857 312.744 931.46 307.091C932.08 306.169 932.834 305.702 933.836 305.266C940.519 302.359 947.115 301.273 953.946 297.749C958.915 295.185 969.311 290.618 970.847 285.031C971.427 282.921 970.908 281.415 969.938 279.536L969.435 279.4C969.419 279.889 969.431 280.21 969.298 280.708C968.876 282.28 967.911 283.264 966.46 283.895C958.555 287.331 929.436 281.511 921.414 278.227C921.266 278.167 921.12 278.103 920.974 278.041C922.719 275.276 923.008 270.894 922.534 267.724C921.052 257.808 909.425 258.356 902.976 253.482C900.708 251.768 899.053 249.121 899.488 246.186C900.054 242.37 903.658 237.767 905.59 234.481C912.767 222.271 918.137 206.686 916.137 192.341ZM957.757 181.849C959.681 181.952 961.67 182.253 963.512 181.577L963.409 180.943C961.338 179.85 959.094 179.32 956.809 178.872C948.933 177.329 932.927 174.019 926.074 178.655C930.576 177.757 938.593 176.544 942.854 178.305C937.071 178.989 931.583 180.059 925.739 179.736C924.519 180.063 923.804 179.973 923.059 181.051C923.823 182.497 925.486 183.421 926.792 184.352C927.676 187.184 928.415 191.68 931.071 193.281L931.983 192.941C932.372 190.471 931.417 187.277 932.286 185.068L933.151 185.198C933.685 185.932 933.997 185.972 933.831 186.92C933.653 187.94 933.326 188.788 932.962 189.752L933.389 190.687L935.106 191.149C935.21 190.997 935.323 190.85 935.418 190.691C935.932 189.823 936.091 188.982 936.328 188.012C937.456 187.134 938.124 187.17 939.566 187.322C940.762 187.448 941.876 187.724 942.689 188.653C941.412 190.543 937.449 190.962 935.292 191.429C934.411 191.951 934.845 191.602 934.062 192.56L934.704 192.847C942.82 191.69 952.273 188.276 957.757 181.849ZM945.332 150.204C937.673 150.962 923.321 153.84 918.374 160.248C917.152 161.83 916.636 163.76 917.006 165.734C917.247 167.025 917.783 168.539 918.827 169.384C919.456 169.893 920.043 169.746 920.8 169.576C926.661 168.263 933.622 162.175 939.33 159.508C950.896 154.362 963.63 158.807 975.788 159.109L976.603 159.136C968.18 154.53 955.282 148.693 945.332 150.204Z"/>
	<path fill="#2D4D55" d="M1002.77 157.129C997.503 153.347 993.188 146.835 989.645 141.492C981.511 129.227 976.062 116.451 971.95 102.369C967.777 88.0767 965.416 67.7465 956.596 55.8033C966.703 59.8675 981.945 116.47 987.152 128.978C991.282 138.9 997.231 147.957 1002.77 157.129Z"/>
	<path fill="#F2F6E7" d="M883.496 128.987C880.656 122.539 879.18 115.507 879.612 108.455C880.668 91.2192 892.934 72.7514 905.665 61.5235C905.675 63.726 901.628 68.9711 900.4 71.1188C895.307 80.0236 890.717 89.4825 887.463 99.2137C884.869 106.973 883.689 114.442 884.115 122.647C884.191 124.098 885.14 129.405 884.418 130.306L883.496 128.987Z"/>
	<path fill="#172E3D" d="M117.591 162.801L117.909 162.457C127.229 152.569 142.626 144.192 156.407 143.797C166.505 143.508 186.415 148.383 193.711 155.233C193.514 160.923 190.251 165.677 187.66 170.59C187.748 169.102 187.976 167.709 188.263 166.248C188.093 166.143 187.93 166.026 187.752 165.934C184.667 164.349 180.006 163.86 176.557 162.814C153.836 155.926 140.377 155.771 117.591 162.801Z"/>
	<path fill="#172E3D" d="M939.33 159.508C933.622 162.175 926.661 168.263 920.8 169.576C920.043 169.746 919.456 169.893 918.827 169.384C917.783 168.539 917.247 167.025 917.006 165.734C916.636 163.76 917.152 161.83 918.374 160.248C923.321 153.84 937.673 150.962 945.332 150.204C955.282 148.693 968.18 154.53 976.603 159.136L975.788 159.109C963.63 158.807 950.896 154.362 939.33 159.508Z"/>
	<path fill="#172E3D" d="M171.817 179.182C170.287 178.289 169.58 177.417 167.753 177.986C166.557 178.359 165.929 178.886 165.438 179.991C165.743 180.623 165.739 180.97 166.441 181.272C167.697 181.814 169.108 181.654 170.447 181.623C169.793 182.351 169.18 183.029 168.374 183.593C159.75 189.623 158.036 178.841 152.563 175.553C150.137 174.096 144.17 173.976 141.197 173.459C145.469 172.838 149.741 171.91 154.04 171.512C157.936 171.151 161.844 171.096 165.737 170.663L165.93 170.318C163.184 169.837 160.427 170.013 157.652 170.082C158.006 170 158.363 169.927 158.723 169.871C163.507 169.127 170.849 169.64 174.81 172.869C175.679 173.578 175.7 173.61 175.85 174.763C174.579 176.311 173.205 177.739 171.817 179.182Z"/>
	<path fill="#F2F6E7" d="M901.241 217.335C894.765 201.941 901.926 186.021 905.13 170.847C905.277 171.059 905.446 171.258 905.572 171.484C909.082 177.78 903.834 209.852 902.201 217.422L901.241 217.335Z"/>
	<path fill="#172E3D" d="M926.074 178.655C932.927 174.019 948.933 177.329 956.809 178.872C959.094 179.32 961.338 179.85 963.409 180.943L963.512 181.577C961.67 182.253 959.681 181.952 957.757 181.849C952.273 188.276 942.82 191.69 934.704 192.847L934.062 192.56C934.845 191.602 934.411 191.951 935.292 191.429C937.449 190.962 941.412 190.543 942.689 188.653C941.876 187.724 940.762 187.448 939.566 187.322C938.124 187.17 937.456 187.134 936.328 188.012C936.091 188.982 935.932 189.823 935.418 190.691C935.323 190.85 935.21 190.997 935.106 191.149L933.389 190.687L932.962 189.752C933.326 188.788 933.653 187.94 933.831 186.92C933.997 185.972 933.685 185.932 933.151 185.198L932.286 185.068C931.417 187.277 932.372 190.471 931.983 192.941L931.071 193.281C928.415 191.68 927.676 187.184 926.792 184.352C925.486 183.421 923.823 182.497 923.059 181.051C923.804 179.973 924.519 180.063 925.739 179.736C931.583 180.059 937.071 178.989 942.854 178.305C938.593 176.544 930.576 177.757 926.074 178.655Z"/>
	<path fill="#F3C986" d="M916.137 192.341C918.137 206.686 912.767 222.271 905.59 234.481C903.658 237.767 900.054 242.37 899.488 246.186C899.053 249.121 900.708 251.768 902.976 253.482C909.425 258.356 921.052 257.808 922.534 267.724C923.008 270.894 922.719 275.276 920.974 278.041C920.236 280.108 919.65 281.566 920.512 283.72C922.266 288.098 930.401 290.274 934.153 292.844C934.077 293.011 934.002 293.179 933.923 293.345C932.509 296.311 927.224 301.218 928.672 304.511C929.148 305.594 930.48 306.474 931.46 307.091C935.857 312.744 938.202 318.23 937.282 325.57C936.622 330.831 933.972 335.667 933.881 341.009C933.876 341.324 933.864 341.639 933.855 341.954C930.633 335.205 936.682 326.772 935.314 319.213C934.049 312.232 926.335 308.951 925.045 302.216C924.391 298.801 925.564 296.395 927.422 293.622C907.158 280.523 920.83 279.053 917.661 268.717C915.408 261.372 906.457 259.744 900.476 256.577C897.701 255.107 894.616 253.427 893.761 250.165C891.998 243.443 898.843 234.544 901.88 228.872C909.138 217.296 913.144 205.601 916.137 192.341Z"/>
	<path fill="#172E3D" d="M101.165 271.806C100.717 272.684 100.479 273.148 99.6252 273.666L98.788 273.298C98.3098 270.665 100.154 267.123 101.618 265.004C105.421 259.498 110.033 257.689 116.357 256.632C118.423 256.405 119.687 256.133 121.423 257.517L121.178 258.143C118.548 258.568 115.758 258.962 113.217 259.777C106.934 261.793 104.058 266.267 101.165 271.806Z"/>
	<path fill="#172E3D" d="M130.602 282.254C128.461 281.671 126.334 281.085 124.229 280.38C125.881 282.368 127.472 284.45 129.387 286.192C131.452 288.237 133.559 289.968 136.045 291.482C140.497 294.195 153.423 298.972 153.594 304.983C153.626 306.084 153.271 306.966 152.901 307.977C152.454 306.345 152.546 304.487 152.012 302.899C151.059 300.063 138.716 294.571 135.676 292.642C132.066 290.352 113.149 276.842 112.265 272.938C113.297 272.137 114.002 271.685 115.271 271.273C115.848 272.166 116.43 273.079 117.095 273.909C121.536 279.459 145.416 283.39 153.459 284.491C159.203 285.277 164.393 286.245 169.268 282.5L169.819 282.069C168.877 283.973 167.996 285.112 165.95 285.881C161.621 287.509 155.079 286.002 150.569 285.483C143.819 284.81 137.214 283.776 130.602 282.254Z"/>
	<path fill="#172E3D" d="M920.974 278.041C921.12 278.103 921.266 278.167 921.414 278.227C929.436 281.511 958.555 287.331 966.46 283.895C967.911 283.264 968.876 282.28 969.298 280.708C969.431 280.21 969.419 279.889 969.435 279.4L969.938 279.536C970.908 281.415 971.427 282.921 970.847 285.031C969.311 290.618 958.915 295.185 953.946 297.749C947.115 301.273 940.519 302.359 933.836 305.266C932.834 305.702 932.08 306.169 931.46 307.091C930.48 306.474 929.148 305.594 928.672 304.511C927.224 301.218 932.509 296.311 933.923 293.345C934.002 293.179 934.077 293.011 934.153 292.844C930.401 290.274 922.266 288.098 920.512 283.72C919.65 281.566 920.236 280.108 920.974 278.041Z"/>
	<path fill="#E1DAAC" d="M124.229 280.38C126.334 281.085 128.461 281.671 130.602 282.254C137.214 283.776 143.819 284.81 150.569 285.483L150.331 288.275C146.029 288.924 136.179 286.723 131.428 285.924L129.387 286.192C127.472 284.45 125.881 282.368 124.229 280.38Z"/>
	<path fill="#172E3D" d="M68.5303 402.289C69.2943 400.279 71.3252 397.982 72.4732 396.05C71.5042 407.479 78.0309 428.497 81.2926 440.065C77.9421 434.925 71.1367 410.026 68.5303 402.289Z"/>
	<path fill="#F3C986" d="M65.7365 406.444C66.4356 405.03 67.6364 403.608 68.5303 402.289C71.1367 410.026 77.9421 434.925 81.2926 440.065C83.3144 443.521 84.1962 448.271 85.4736 452.108C85.1023 452.849 83.6787 454.325 83.7564 454.498C85.2647 457.847 87.2807 461.027 88.8239 464.393Q101.22 491.593 112.519 519.266Q120.694 539.116 127.99 559.305Q135.286 579.495 141.69 599.984Q148.094 620.474 153.594 641.225Q159.093 661.976 163.677 682.948C169.446 709.162 173.707 735.816 178.306 762.262Q184.234 795.148 188.4 828.304C189.226 835.055 190.454 841.461 190.901 848.299C190.061 842.763 188.429 837.357 187.421 831.847C182.379 804.28 176.747 776.907 170.842 749.504C164.111 718.265 157.991 686.809 150.023 655.857C135.518 599.508 116.696 544.778 95.7568 490.518C93.8512 485.58 83.7421 456.843 81.757 454.488C80.8081 454.548 79.8643 454.576 78.9136 454.593C76.1805 449.918 66.395 412.861 65.7365 406.444Z"/>
	<path fill="#172E3D" d="M65.7365 406.444C66.395 412.861 76.1805 449.918 78.9136 454.593C79.8643 454.576 80.8081 454.548 81.757 454.488C83.7421 456.843 93.8512 485.58 95.7568 490.518C116.696 544.778 135.518 599.508 150.023 655.857C157.991 686.809 164.111 718.265 170.842 749.504C176.747 776.907 182.379 804.28 187.421 831.847C188.429 837.357 190.061 842.763 190.901 848.299C190.454 841.461 189.226 835.055 188.4 828.304Q184.234 795.148 178.306 762.262C173.707 735.816 169.446 709.162 163.677 682.948Q159.093 661.976 153.594 641.225Q148.094 620.474 141.69 599.984Q135.286 579.495 127.99 559.305Q120.694 539.116 112.519 519.266Q101.22 491.593 88.8239 464.393C87.2807 461.027 85.2647 457.847 83.7564 454.498C83.6787 454.325 85.1023 452.849 85.4736 452.108L85.6712 452.719C87.3745 472.582 130.243 499.615 136.421 519.247C141.807 536.362 145.082 554.496 148.895 572.029Q158.407 614.718 167.071 657.587L212.337 877.933Q106.181 875.333 0 874.031L0 434.324Q34.0424 483.858 65.8335 534.865C74.7577 549.032 84.9402 563.272 92.5203 578.164C97.6688 588.278 100.888 599.053 104.399 609.797Q110.351 627.951 116.111 646.167C128.246 684.633 140.11 723.069 150.109 762.156C154.12 777.833 158.184 793.68 161.176 809.59L161.024 809.995L160.795 809.024C161.275 809.685 161.305 810.2 161.459 810.989L161.392 809.654L162.207 809.395Q153.803 765.296 143.69 721.556C135.242 684.15 126.37 646.484 115.411 609.737C110.046 591.748 103.646 574.176 97.8751 556.329Q87.8796 525.268 79.5215 493.728C76.3605 482.051 72.9696 470.226 70.6697 458.346C73.3774 457.303 76.0186 456.263 78.6064 454.942C72.5645 455.563 66.3222 455.897 60.3356 456.861C57.0828 450.652 54.0749 443.725 49.9057 438.095L46.6995 443.604Q40.8239 454.202 34.801 464.717C22.5511 452.219 11.3671 438.975 0 425.691L0 420.047C11.4121 434.066 23.3352 447.72 34.9605 461.573C39.1394 455.464 42.1266 448.676 46.1652 442.521C47.6946 438.7 50.37 434.807 52.3631 431.159L65.7365 406.444Z"/>
	<path fill="#F2F6E7" d="M0 425.691C11.3671 438.975 22.5511 452.219 34.801 464.717Q40.8239 454.202 46.6995 443.604L49.9057 438.095C54.0749 443.725 57.0828 450.652 60.3356 456.861C66.3222 455.897 72.5645 455.563 78.6064 454.942C76.0186 456.263 73.3774 457.303 70.6697 458.346C72.9696 470.226 76.3605 482.051 79.5215 493.728Q87.8796 525.268 97.8751 556.329C103.646 574.176 110.046 591.748 115.411 609.737C126.37 646.484 135.242 684.15 143.69 721.556Q153.803 765.295 162.207 809.395L161.392 809.654L161.459 810.989C161.305 810.2 161.275 809.685 160.795 809.024L161.024 809.995L161.176 809.59C158.184 793.68 154.12 777.833 150.109 762.156C140.11 723.069 128.246 684.633 116.111 646.167Q110.351 627.951 104.399 609.797C100.888 599.053 97.6688 588.278 92.5203 578.164C84.9402 563.272 74.7577 549.032 65.8335 534.865Q34.0423 483.857 0 434.324L0 425.691Z"/>
	<path fill="#F3C986" d="M860.089 690.924C863.421 684.668 868.628 678.804 872.777 673.015L911.245 620.202C916.693 612.594 922.958 605.322 927.345 597.032C934.937 582.685 938.652 565.838 943.789 550.463C948.281 537.022 965.552 486.338 972.525 479.073C981.023 470.219 1011.63 455.104 1024 448.937L1024 458.463C1014.82 463.484 983.123 480.842 978.306 487.344C973.339 494.05 970.634 503.975 967.686 511.782Q957.975 537.832 948.886 564.106C944.757 575.88 940.944 588.386 935.359 599.546C929.314 611.624 920.509 622.624 912.504 633.471L883.536 672.755C878.415 679.729 872.492 686.77 868.38 694.382C872.127 721.518 880.567 746.152 894.425 769.809C898.727 777.152 905.273 784.053 908.289 792.003C911.117 799.455 911.189 809.063 911.963 817.008Q915.51 850.935 916.146 885.04C916.227 892.54 916.448 900.216 915.883 907.696L914.465 906.931C912.523 904.44 910.778 877.358 910.264 872.191C902.022 869.729 893.567 867.977 885.308 865.548C869.839 861 854.471 855.447 839.461 849.557Q819.23 841.472 799.411 832.426C794.211 830.052 778.359 821.423 774.066 820.697L773.937 820.846L775.15 821.285L774.793 821.554C799.967 837.377 824.153 855.225 848.413 872.429C855.913 877.747 868.572 885.045 874.822 890.629C874.936 890.73 875.047 890.836 875.159 890.939C864.637 886.415 854.183 879.748 844.239 874.027C816.29 857.946 789.464 840.632 762.806 822.507C751.943 815.121 741.383 806.991 730.289 799.999C718.068 792.298 703.426 785.158 689.779 780.356C686.102 779.062 682.327 777.905 678.457 777.368C666.308 775.68 637.573 775.796 625.633 778.838C620.515 780.142 615.57 782.906 610.836 785.189C609.33 783.97 608.308 783.106 606.379 782.741C608.154 781.047 609.753 779.717 611.292 777.741C611.926 777.281 612.321 776.899 612.839 776.326C611.649 775.062 606.104 776.374 604.348 776.568C598.707 777.193 593.117 776.305 587.49 776.061C582.455 775.842 577.342 776.157 572.344 775.453C571.096 775.277 569.846 775.132 568.595 774.977C557.37 774.534 540.106 776.253 529.918 771.563C532.246 771.002 536.082 772.115 538.541 772.389C543.786 772.973 562.512 774.981 566.863 772.689C574.033 771.791 580.99 772.824 588.246 771.421C581.595 770.532 575.027 769.975 568.351 770.975C563.935 771.185 535.754 771.637 533.935 770.223C541.483 769.667 549.332 770.079 556.925 770.004C564.102 769.933 571.601 769.319 578.73 769.889C585.297 770.415 591.806 771.751 598.376 772.354C604.255 772.893 610.138 772.894 616.018 773.556C620.668 771.033 625.472 769.342 630.553 767.907C645.797 765.168 669.59 764.163 684.714 767.441C693.771 769.403 704.153 773.596 712.441 777.805C715.827 779.524 724.292 785.549 727.53 785.643C738.769 791.794 749.339 799.056 760.647 805.117C806.363 829.618 858.844 851.891 909.208 864.375Q906.895 841.96 903.121 819.745C901.408 809.663 899.245 799.621 897.927 789.478L897.307 789.082L896.63 789.352C892.23 783.173 888.371 776.41 884.634 769.812C870.93 745.621 860.376 719.157 860.089 690.924Z"/>
	<path fill="#F3C986" d="M85.6712 452.719C91.8417 455.715 96.6925 461.356 101.614 466.05C114.439 478.281 138.39 501.169 144.115 517.547C147.398 526.94 148.676 537.108 151.014 546.765C157.538 573.715 163.547 600.634 168.894 627.846L199.405 782.036C200.268 792.604 202.901 803.389 204.585 813.879C208.017 835.264 211.118 856.874 215.618 878.066C224.687 878.662 233.833 878.826 242.921 878.991C243.581 881.315 244.055 883.86 245.463 885.853C255.79 887.89 289.207 870.383 299.93 865.572C303.042 864.055 311.731 861.417 313.205 858.501C316.246 857.934 320.015 855.435 322.912 854.073C342.122 845.037 344.514 843.113 365.995 847.045C373.608 848.439 403.777 853.003 409.28 849.203C410.107 849.603 410.35 849.57 411.24 849.534C411.701 849.082 411.883 848.772 412.032 848.138C412.857 844.624 413.129 840.945 413.79 837.388C415.043 830.64 416.664 823.945 418.092 817.231C419.169 812.167 419.994 806.94 421.52 801.99L421.674 802.734C422.972 798.674 423.248 788.853 426.068 786.372C426.494 787.228 426.962 788.087 427.016 789.064C427.283 793.879 424.824 800.454 423.74 805.297C423.056 808.35 414.188 847.847 414.492 848.662C414.617 848.997 414.952 849.208 415.182 849.481C416.405 849.775 418.008 849.857 418.884 850.761L417.646 851.531C417.668 852.585 417.742 853.548 417.93 854.585Q409.365 855.81 400.714 855.994Q392.064 856.178 383.454 855.318C373.073 854.27 354.975 849.377 345.484 851.341C337.772 852.937 330.189 857.126 323.125 860.506Q307.683 867.816 292.435 875.523C281.962 880.812 271.49 886.615 260.232 890.083C256.628 891.194 252.589 890.672 248.784 891.501C247.607 890.815 247.063 889.343 246.428 888.166C199.344 888.455 151.955 886.142 104.891 884.407Q70.2077 883.192 35.542 881.544C23.6943 881.028 11.8235 880.919 0 879.944L0 874.031Q106.181 875.333 212.337 877.933L167.071 657.587Q158.407 614.718 148.895 572.029C145.082 554.496 141.807 536.362 136.421 519.247C130.243 499.615 87.3745 472.582 85.6712 452.719Z"/>
	<path fill="#172E3D" d="M868.38 694.382C872.492 686.77 878.415 679.729 883.536 672.755L912.504 633.471C920.509 622.624 929.314 611.624 935.359 599.546C940.944 588.386 944.757 575.88 948.886 564.106Q957.975 537.832 967.686 511.782C970.634 503.975 973.339 494.05 978.306 487.344C983.123 480.842 1014.82 463.484 1024 458.463L1024 460.402C1016.71 466.056 1009.68 471.74 1004.44 479.446C992.183 497.444 987.221 519.022 981.213 539.615C975.941 557.687 970.923 575.64 967.038 594.079C986.404 582.04 1004.68 568.291 1024 556.155L1024 951.896C1011.32 947.842 998.934 942.072 986.555 937.143C962.858 927.709 939.017 918.462 915.883 907.696C916.448 900.216 916.227 892.54 916.146 885.04Q915.51 850.935 911.963 817.008C911.189 809.063 911.117 799.455 908.289 792.003C905.273 784.053 898.727 777.152 894.425 769.809C880.567 746.152 872.127 721.518 868.38 694.382Z"/>
	<path fill="#2D4D55" d="M967.038 594.079C970.923 575.64 975.941 557.687 981.213 539.615C987.221 519.022 992.183 497.444 1004.44 479.446C1009.68 471.74 1016.71 466.056 1024 460.402L1024 556.155C1004.68 568.291 986.404 582.04 967.038 594.079Z"/>
	<path fill="#F3C986" d="M349.468 782.481C358.63 775.414 367.584 768.076 376.669 760.911C384.061 755.081 391.747 749.434 400.166 745.169C410.158 740.108 444.556 729.124 455.482 727.665C458.126 727.313 460.857 727.257 463.404 728.154C468.427 729.923 472.527 732.976 476.6 736.31C487.7 745.395 494.396 748.068 508.629 749.749C510.357 750.208 512.273 750.058 514.057 750.055C518.423 750.725 523.02 751.222 526.399 754.377L527.007 756.341L526.495 756.928C525.068 756.999 523.545 756.909 522.242 757.556L522.102 757.941C514.814 755.743 502.938 758.689 492.423 755.562C485.13 753.393 478.517 748.826 472.577 744.201C469.839 742.068 467.053 739.557 463.865 738.134C461.315 736.995 457.501 737.232 454.776 737.608C448.838 738.427 443.203 740.8 437.408 742.261C430.183 744.083 422.778 744.947 415.681 747.311Q408.915 749.614 402.652 753.056C383.463 763.461 336.429 806.626 319.756 808.177C321.933 805.901 324.393 803.8 326.696 801.645L321.663 797.679C317.979 797.489 313.013 796.747 309.501 798.086C305.149 799.745 301.195 803.742 297.425 806.459Q293.334 809.351 288.88 811.644Q251.122 831.395 211.716 847.607Q211.304 844.941 210.834 842.285C234.918 831.416 258.852 820.439 282.261 808.148C289.709 804.237 300.505 795.585 306.756 792.998C310.569 791.42 315.543 790.891 319.658 791.248C324.877 791.701 327.899 793.69 331.137 797.543C337.104 792.255 343.178 787.385 349.468 782.481Z"/>
	<path fill="#2D4D55" d="M319.756 808.177C336.429 806.626 383.463 763.461 402.652 753.056Q408.915 749.614 415.681 747.311C422.778 744.947 430.183 744.083 437.408 742.261C443.203 740.8 448.838 738.427 454.776 737.608C457.501 737.232 461.315 736.995 463.865 738.134C467.053 739.557 469.839 742.068 472.577 744.201C478.517 748.826 485.13 753.393 492.423 755.562C502.938 758.689 514.814 755.743 522.102 757.941C522.712 760.109 522.674 761.947 522.012 764.109C521.143 765.648 520.332 767.331 519.255 768.734C513.737 772.363 507.884 773.914 502.11 776.851C509.106 776.247 514.688 774.285 521.221 771.869C523.045 771.257 524.89 770.737 526.74 770.211L531.916 768.349C534.833 767.423 544.536 763.453 547.008 764.155C541.931 765.995 536.869 767.959 531.655 769.381C530.547 769.818 529.444 770.282 528.315 770.66C522.793 772.479 517.19 774.117 511.694 776.003C528.952 776.182 546.46 778.038 563.68 776.949C568.211 777.072 572.727 777.556 577.249 777.636C583.847 777.753 589.965 777.5 596.532 778.352L596.119 778.515C582.02 777.838 567.762 778.077 553.643 777.831C541.871 777.626 530.11 776.94 518.334 776.911C505.947 776.881 493.976 777.687 481.558 776.889C477.562 775.338 471.898 775.323 467.574 774.182C460.753 771.505 455.098 770.678 447.83 770.33C441.87 786.853 438.091 803.788 433.704 820.758C432.676 824.735 431.045 828.464 429.952 832.378C429.437 834.224 429.281 836.145 428.776 838.001L428.727 837.985C428.111 834.719 440.121 789.509 442.263 783.078C437.217 784.825 431.482 786.65 426.068 786.372C423.248 788.853 422.972 798.674 421.674 802.734L421.52 801.99L421.38 800.555C418.514 799.097 412.687 800.478 409.56 800.886C409.374 816.921 411.037 833.261 409.28 849.203C403.777 853.003 373.608 848.439 365.995 847.045C344.514 843.113 342.122 845.037 322.912 854.073C320.015 855.435 316.246 857.934 313.205 858.501C312.748 849.336 311.547 831.044 313.849 822.469C315.955 820.796 316.066 815.804 316.793 813.177C317.282 811.413 318.087 809.114 319.756 808.177Z"/>
	<path fill="#F2F6E7" d="M447.83 770.33C455.098 770.678 460.753 771.505 467.574 774.182L465.259 774.529C462.199 773.811 458.629 773.632 455.508 774.109C456.75 775.349 456.894 775.324 457.056 777.046C456.901 777.095 456.747 777.146 456.591 777.194C455.303 777.586 454.577 777.807 453.234 777.395C451.68 778.795 451.452 783.264 451.128 785.405C450.859 786.41 450.357 787.641 450.394 788.672C451.383 789.493 452.379 790.295 453.289 791.205C449.493 802.65 445.487 814.035 441.776 825.505C439.56 832.355 437.893 839.459 435.216 846.14C434.28 848.473 433.348 850.492 431.751 852.463L431.733 853.722C428.511 855.718 424.065 852.97 420.572 854.281C419.667 854.621 418.886 854.585 417.93 854.585C417.742 853.548 417.668 852.585 417.646 851.531L418.884 850.761C418.008 849.857 416.405 849.775 415.182 849.481C414.952 849.208 414.617 848.997 414.492 848.662C414.188 847.847 423.056 808.35 423.74 805.297C424.824 800.454 427.283 793.879 427.016 789.064C426.962 788.087 426.494 787.228 426.068 786.372C431.482 786.65 437.217 784.825 442.263 783.078C440.121 789.509 428.111 834.719 428.727 837.985L428.776 838.001C429.281 836.145 429.437 834.224 429.952 832.378C431.045 828.464 432.676 824.735 433.704 820.758C438.091 803.788 441.87 786.853 447.83 770.33Z"/>
	<path fill="#2D4D55" d="M457.056 777.046C456.894 775.324 456.75 775.349 455.508 774.109C458.629 773.632 462.199 773.811 465.259 774.529C463.213 774.76 460.073 774.406 458.344 775.449C457.865 776.333 457.791 776.995 457.708 777.99C455.165 791.247 448.595 807.646 444.168 820.705C440.337 832.006 437.654 843.658 432.061 854.27C435.833 854.231 442.677 855.012 445.607 852.115C446.999 850.738 447.33 848.72 447.697 846.881Q447.509 849.753 447.185 852.612C452.252 850.939 457.37 848.868 462.781 848.99C464.145 849.656 465.505 850.18 466.504 851.366L467.255 851.756C468.434 853.988 469.292 856.503 468.547 859.031C467.934 861.111 465.878 863.213 466.003 865.304L467.258 865.376C462.995 868.357 459.86 872.651 455.855 875.957C451.884 878.43 443.66 884.093 439.484 885.111L439.671 884.363C434.5 884.116 429.141 885.518 423.869 885.5C422.092 885.611 420.258 885.63 418.506 885.942C415.807 886.067 413.231 886.259 410.565 886.724C410.102 888.5 409.677 890.261 409.327 892.062C409.351 891.021 409.423 889.952 409.409 888.914C409.398 888.078 409.062 887.571 408.662 886.87L408.114 886.888C407.278 888.571 406.778 889.917 406.475 891.776L406.838 892.796C407.787 893.04 408.61 893.182 409.59 893.219L411.885 893.351C409.859 894.647 401.11 893.658 398.405 893.545C399.982 892.744 404.095 893.11 405.978 893.094C406.192 891.022 406.406 889.015 406.916 886.988C403.943 887.743 397.361 888.682 395.673 891.194L395.429 892.928L394.751 893.119C394.639 892.905 394.533 892.689 394.415 892.478C393.882 891.527 394.119 891.873 393.246 891.09C388.517 892.197 382.468 894.706 377.631 894.034C374.732 892.271 364.217 892.826 360.07 892.175C364.86 895.101 371.219 898.172 376.994 896.236C377.215 896.162 377.405 896.014 377.61 895.903C385.429 896.224 415.213 898.377 420.604 896.945C424.844 895.818 429.134 892.534 432.846 890.21L433.086 890.72C436.452 891.236 450.109 883.783 454.03 881.739C472.892 871.881 491.095 860.851 510.293 851.607C510.716 864.589 485.704 891.09 476.446 900.981C471.406 906.364 466.341 911.833 460.357 916.193C448.33 924.957 432.102 929.771 425.346 944.125C436.374 932.068 448.277 928.773 460.979 919.844C466.274 916.122 469.899 911.027 474.626 906.756C468.794 915.329 463.198 924.676 456.089 932.235C451.123 937.514 445.358 942.006 439.802 946.642C428.604 955.984 417.159 965.08 407.15 975.731C403.441 979.677 396.44 990.242 391.281 991.359C381.46 993.484 354.374 983.137 343.138 980.272Q331.305 977.298 319.234 975.52C302.123 972.929 285.2 973.072 268.005 974.838C269.784 954.499 268.845 929.535 263.665 909.744C261.933 903.123 259.313 896.92 256.679 890.623L248.823 891.951L248.784 891.501C252.589 890.672 256.628 891.194 260.232 890.083C271.49 886.615 281.962 880.812 292.435 875.523Q307.683 867.816 323.125 860.506C330.189 857.126 337.772 852.937 345.484 851.341C354.975 849.377 373.073 854.27 383.454 855.318Q392.064 856.178 400.714 855.994Q409.365 855.81 417.93 854.585C418.886 854.585 419.667 854.621 420.572 854.281C424.065 852.97 428.511 855.718 431.733 853.722L431.751 852.463C433.348 850.492 434.28 848.473 435.216 846.14C437.893 839.459 439.56 832.355 441.776 825.505C445.487 814.035 449.493 802.65 453.289 791.205L454.957 785.933C455.785 783.003 456.403 780.02 457.056 777.046ZM349.284 969.562C357.232 973.281 392.714 982.728 400.374 980.092C400.769 979.956 401.158 979.8 401.547 979.648L401.162 978.699C396.983 977.875 392.576 977.808 388.327 977.019C379.387 975.359 356.683 968.875 349.284 969.562Z"/>
	<path fill="#E1DAAC" d="M467.574 774.182C471.898 775.323 477.562 775.338 481.558 776.889C482.016 777.983 482.161 778.38 483.288 778.982C490.593 782.88 527.877 779.211 538.587 780.534L538.58 781.768C533.246 781.56 527.843 781.196 522.51 781.27C514.059 781.389 505.633 782.134 497.173 781.657C483.989 780.913 470.911 778.118 457.708 777.99C457.791 776.995 457.865 776.333 458.344 775.449C460.073 774.406 463.213 774.76 465.259 774.529L467.574 774.182Z"/>
	<path fill="#F3C986" d="M451.128 785.405C451.452 783.264 451.68 778.795 453.234 777.395C454.577 777.807 455.303 777.586 456.591 777.194C456.747 777.146 456.901 777.095 457.056 777.046C456.403 780.02 455.785 783.003 454.957 785.933C454.023 784.992 453.931 784.598 452.588 784.335L451.128 785.405Z"/>
	<path fill="#2D4D55" d="M610.836 785.189C615.57 782.906 620.515 780.142 625.633 778.838C637.573 775.796 666.308 775.68 678.457 777.368C682.327 777.905 686.102 779.062 689.779 780.356C703.426 785.158 718.068 792.298 730.289 799.999C741.383 806.991 751.943 815.121 762.806 822.507C789.464 840.632 816.29 857.946 844.239 874.027C854.183 879.748 864.637 886.415 875.159 890.939C875.047 890.836 874.936 890.73 874.822 890.629C868.572 885.045 855.913 877.747 848.413 872.429C824.153 855.225 799.967 837.377 774.793 821.554L775.15 821.285L773.937 820.846L774.066 820.697C778.359 821.423 794.211 830.052 799.411 832.426Q819.23 841.472 839.461 849.557C854.471 855.447 869.839 861 885.308 865.548C893.567 867.977 902.022 869.729 910.264 872.191C910.778 877.358 912.523 904.44 914.465 906.931L915.883 907.696C939.017 918.462 962.858 927.709 986.555 937.143C998.934 942.072 1011.32 947.842 1024 951.896L1024 1024L959.063 1024C942.317 1013.9 924.592 1005.23 908.02 994.905C897.25 988.196 886.847 980.809 876.129 973.987Q835.969 948.061 794.555 924.19C778.197 914.625 761.275 903.765 743.481 897.098C737.31 894.786 730.585 893.429 724.036 892.794C708.279 891.267 694.171 893.949 679.201 898.5C668.719 901.687 658.287 905.684 647.109 904.924C643.194 904.658 639.356 903.592 636.211 901.17C631.9 897.85 629.313 891.684 625.588 887.53C619.062 880.253 610.884 874.82 604.13 867.839C601.992 865.629 600.927 862.956 599.245 860.454C597.595 857.999 595.429 855.742 593.472 853.525L593.641 852.906C596.131 854.112 598.261 856.342 600.524 857.951C610.883 865.314 620.737 872.894 630.739 880.722L632.28 880.509L632.504 881.086C632.557 880.937 632.455 880.771 632.402 880.622C630.41 875.014 614.85 863.169 609.36 859.777C604.204 856.592 598.493 854.049 593.154 851.156C589.491 848.745 588.785 844.807 586.339 841.385C583.82 837.86 580.15 835.625 577.088 832.651L576.366 831.941C580.451 833.757 584.354 836.011 588.427 837.873C596.602 841.609 604.983 844.929 613.24 848.485C617.992 850.531 622.727 852.832 627.613 854.523L627.951 854.23C627.879 854.025 627.825 853.813 627.734 853.616C624.13 845.77 585.944 834.532 576.123 830.58C575.063 830.111 573.934 829.665 572.934 829.081C571.51 828.25 571.476 827.218 571.081 825.748C581.527 821.627 592.404 816.764 603.208 813.728C608.842 812.144 614.631 812.106 620.385 811.228C627.45 810.15 648.036 805.436 652.745 801.491C651.412 800.657 649.527 800.646 647.977 800.546C636.177 799.784 632.079 805.084 621.872 808.132C613.508 810.629 603.025 811.791 594.434 809.86C588.519 808.531 583.643 805.159 580.444 799.989C579.22 798.011 579.161 796.915 579.677 794.738L581.677 792.648C583.931 791.529 586.402 791.209 588.855 790.745C596.228 790.01 604 788.034 610.836 785.189Z"/>
	<path fill="#172E3D" d="M199.405 782.036Q274.436 782.698 349.468 782.481C343.178 787.385 337.104 792.255 331.137 797.543C327.899 793.69 324.877 791.701 319.658 791.248C315.543 790.891 310.569 791.42 306.756 792.998C300.505 795.585 289.709 804.237 282.261 808.148C258.852 820.439 234.918 831.416 210.834 842.285Q211.304 844.941 211.716 847.607Q251.122 831.395 288.88 811.644Q293.334 809.351 297.425 806.459C301.195 803.742 305.149 799.745 309.501 798.086C313.013 796.747 317.979 797.489 321.663 797.679L326.696 801.645C324.393 803.8 321.933 805.901 319.756 808.177C318.087 809.114 317.282 811.413 316.793 813.177C316.066 815.804 315.955 820.796 313.849 822.469Q314.002 820.424 314.34 818.401Q314.677 816.378 315.198 814.394Q315.718 812.41 316.416 810.481Q317.114 808.552 317.984 806.695C320.915 805.058 323.296 803.065 325.684 800.716C319.012 801.406 311.704 801.53 307.16 807.278C297.761 819.168 297.898 850.149 299.853 865.052C299.876 865.226 299.904 865.399 299.93 865.572C289.207 870.383 255.79 887.89 245.463 885.853C244.055 883.86 243.581 881.315 242.921 878.991C233.833 878.826 224.687 878.662 215.618 878.066C211.118 856.874 208.017 835.264 204.585 813.879C202.901 803.389 200.268 792.604 199.405 782.036Z"/>
	<path fill="#C5C296" d="M578.4 784.018C584.239 785.125 600.502 784.067 606.379 782.741C601.732 785.703 596.253 785.897 591.309 788.031C589.997 788.597 588.826 788.914 587.69 789.813C588.336 790.691 587.93 790.405 588.855 790.745C586.402 791.209 583.931 791.529 581.677 792.648L579.677 794.738L579.063 794.448C578.663 795.269 578.428 796.02 578.19 796.892C577.002 801.265 568.073 817.678 564.351 819.879C563.798 820.205 563.224 820.488 562.647 820.767C562.993 819.695 563.83 818.838 564.514 817.951L564.167 817.324L562.188 817.975L562.174 817.679C565.361 815.434 565.055 814.695 566.928 811.655C567.829 810.194 569.176 809.08 570.088 807.58C566.39 809.069 561.623 814.011 558.539 816.71L557.795 816.563C559.141 815.056 561.505 813.771 562.388 811.994C562.728 811.311 562.319 810.953 562.036 810.318C562.773 809.784 563.365 809.275 563.974 808.598L563.143 809.458L563.775 808.62C563.12 808.854 562.458 809.063 561.803 809.294C561.082 809.549 560.35 809.881 559.565 809.847C558.221 809.788 556.351 809.332 555.352 808.399C555.465 807.427 555.518 807.161 555.151 806.22C553.708 805.749 553.338 807.927 551.117 808.466C550.063 808.722 549.726 809.587 549.083 810.437C548.511 810.267 547.941 809.984 547.39 809.753C547.573 808.95 549.491 808.249 550.217 807.6C549.559 807.128 549.285 806.866 548.452 807.136C547.696 807.38 547.014 808.085 546.201 808.353C543.395 809.276 539.157 809.077 536.185 809.293L537.113 808.718L537.014 808.158C535.874 807.719 535.048 807.631 533.857 807.83C532.001 808.141 531.341 808.801 530.313 810.322C528.881 810.061 527.419 810.017 526.392 808.883L526.634 808.236C531.394 804.676 538.461 804.133 544.008 802.254C549.404 800.426 554.724 798.233 560.043 796.185C560.392 797.662 560.662 798.786 561.93 799.691C563.543 798.766 563.513 796.574 565.158 795.699C565.992 797.011 566.019 797.236 567.44 797.801L567.673 797.006C567.11 795.886 566.521 795.33 565.566 794.528C566.675 793.975 567.64 793.484 568.619 792.712C567.02 791.612 565.114 791.859 563.222 791.926C559.107 792.072 554.942 792.376 550.831 792.043C546.71 791.71 542.72 790.825 538.549 790.722C532.946 790.585 527.386 791.324 521.796 791.313C516.978 791.304 512.191 790.53 507.367 790.624L506.825 790.64L505.285 788.423C521.465 791.125 539.366 789.193 555.254 785.339C554.565 785.955 553.866 786.561 553.197 787.198C558.965 786.218 564.244 787.145 569.916 786.811L569.889 786.314C568.235 785.986 565.241 786.252 564.108 785.255C567.454 784.441 572.399 785.622 575.966 785.496C574.958 785.174 573.605 784.987 572.886 784.214C574.302 783.747 576.848 784.048 578.4 784.018Z"/>
	<path fill="#F2F6E7" d="M606.379 782.741C608.308 783.106 609.33 783.97 610.836 785.189C604 788.034 596.228 790.01 588.855 790.745C587.93 790.405 588.336 790.691 587.69 789.813C588.826 788.914 589.997 788.597 591.309 788.031C596.253 785.897 601.732 785.703 606.379 782.741Z"/>
	<path fill="#E1DAAC" d="M450.394 788.672C450.357 787.641 450.859 786.41 451.128 785.405L452.588 784.335C453.931 784.598 454.023 784.992 454.957 785.933L453.289 791.205C452.379 790.295 451.383 789.493 450.394 788.672Z"/>
	<path fill="#172E3D" d="M727.53 785.643C741.517 785.363 755.528 786.008 769.51 786.403L844.694 788.859C861.708 789.409 879.676 790.961 896.63 789.352L897.307 789.082L897.927 789.478C899.245 799.621 901.408 809.663 903.121 819.745Q906.895 841.96 909.208 864.375C858.844 851.891 806.363 829.618 760.647 805.117C749.339 799.056 738.769 791.794 727.53 785.643Z"/>
	<path fill="#E1DAAC" d="M480.327 789.906C482.238 788.879 484.116 787.855 486.263 787.423C490.175 786.635 502.055 786.35 505.285 788.423L506.825 790.64L507.367 790.624C512.191 790.53 516.978 791.304 521.796 791.313C527.386 791.324 532.946 790.585 538.549 790.722C542.72 790.825 546.71 791.71 550.831 792.043C554.942 792.376 559.107 792.072 563.222 791.926C565.114 791.859 567.02 791.612 568.619 792.712C567.64 793.484 566.675 793.975 565.566 794.528L565.236 794.771C562.144 792.496 545.911 796.164 540.821 795.447C535.976 795.762 531.124 796.147 526.272 796.313C528.312 796.832 530.408 797.427 532.497 797.697C535.278 798.056 538.964 797.514 541.532 798.419C542.503 798.761 542.877 799.061 543.504 799.839L543.293 800.597C539.388 801.842 525.58 800.214 519.895 800.791C512.694 801.522 505.074 802.364 498.042 804.072C492.119 805.511 486.421 807.541 480.554 809.123C480.654 808.998 480.735 808.854 480.855 808.749C481.668 808.033 482.382 807.582 483.119 806.725C482.701 806.685 482.295 806.566 481.886 806.47L482.088 806.365C480.494 806.667 478.893 807.012 477.278 807.173L476.502 807.245C477.106 806.676 476.839 806.803 477.576 806.553C479.162 806.013 480.636 805.482 482.157 804.771L482.373 804.14C480.033 803.067 468.29 803.234 465.586 803.806C465.408 803.844 465.236 803.906 465.06 803.956C465.018 803.649 464.935 803.344 464.934 803.034C464.929 802.043 465.564 801.002 466.245 800.383L466.707 800.763L466.725 802.021L467.484 802.547C470.864 803.017 477.261 803.156 480.493 802.115C488.919 799.401 501.265 800.911 508.597 795.058L508.283 794.503C499.665 791.994 473.82 796.192 466.856 793.467L466.847 792.956C473.402 790.897 493.466 792.368 501.666 792.237C494.792 790.076 487.434 790.874 480.327 789.906Z"/>
	<path fill="#F2F6E7" d="M562.647 820.767C563.224 820.488 563.798 820.205 564.351 819.879C568.073 817.678 577.002 801.265 578.19 796.892C578.428 796.02 578.663 795.269 579.063 794.448L579.677 794.738C579.161 796.915 579.22 798.011 580.444 799.989C583.643 805.159 588.519 808.531 594.434 809.86C603.025 811.791 613.508 810.629 621.872 808.132C632.079 805.084 636.177 799.784 647.977 800.546C649.527 800.646 651.412 800.657 652.745 801.491C648.036 805.436 627.45 810.15 620.385 811.228C614.631 812.106 608.842 812.144 603.208 813.728C592.404 816.764 581.527 821.627 571.081 825.748Q550.286 834.043 529.717 842.881C523.228 845.675 516.56 848.337 510.293 851.607C491.095 860.851 472.892 871.881 454.03 881.739C450.109 883.783 436.452 891.236 433.086 890.72L432.846 890.21C429.134 892.534 424.844 895.818 420.604 896.945C415.213 898.377 385.429 896.224 377.61 895.903L377.631 894.034C382.468 894.706 388.517 892.197 393.246 891.09C394.119 891.873 393.882 891.527 394.415 892.478C394.533 892.689 394.639 892.905 394.751 893.119L395.429 892.928L395.673 891.194C397.361 888.682 403.943 887.743 406.916 886.988C406.406 889.015 406.192 891.022 405.978 893.094C404.095 893.11 399.982 892.744 398.405 893.545C401.11 893.658 409.859 894.647 411.885 893.351L409.59 893.219C408.61 893.182 407.787 893.04 406.838 892.796L406.475 891.776C406.778 889.917 407.278 888.571 408.114 886.888L408.662 886.87C409.062 887.571 409.398 888.078 409.409 888.914C409.423 889.952 409.351 891.021 409.327 892.062C409.677 890.261 410.102 888.5 410.565 886.724C413.231 886.259 415.807 886.067 418.506 885.942C420.258 885.63 422.092 885.611 423.869 885.5C429.141 885.518 434.5 884.116 439.671 884.363L439.484 885.111C443.66 884.093 451.884 878.43 455.855 875.957C459.86 872.651 462.995 868.357 467.258 865.376L466.003 865.304C465.878 863.213 467.934 861.111 468.547 859.031C469.292 856.503 468.434 853.988 467.255 851.756C468.87 851.81 470.365 852.024 471.958 852.276L472.278 852.89C471.61 853.753 470.905 854.46 470.104 855.2C472.294 854.771 473.914 853.232 475.53 851.802C481.009 849.59 486.274 846.736 491.695 844.359C492.563 844.154 493.245 843.926 494.05 843.528C498.331 841.406 512.981 834.188 516.809 835.368C516.157 836.34 503.758 840.746 501.503 841.807C501.827 841.91 502.136 842.102 502.476 842.118C503.615 842.17 525.492 833.069 530.805 833.034C530.578 833.811 527.903 834.782 527.058 835.274L526.213 835.77C532.72 834.22 539.051 830.829 545.416 828.675C547.039 827.978 548.449 827.267 549.914 826.278L549.953 825.767C545.655 826.775 542.494 829.644 537.825 829.788L537.083 828.979C542.717 827.574 548.317 825.058 553.501 822.494C555.549 821.84 557.556 821.247 559.666 820.823L560.752 821.571L562.647 820.767Z"/>
	<path fill="#D0CEA6" d="M565.236 794.771L565.566 794.528C566.521 795.33 567.11 795.886 567.673 797.006L567.44 797.801C566.019 797.236 565.992 797.011 565.158 795.699C563.513 796.574 563.543 798.766 561.93 799.691C560.662 798.786 560.392 797.662 560.043 796.185C561.814 795.905 563.526 795.301 565.236 794.771Z"/>
	<path fill="#F2F6E7" d="M421.52 801.99C419.994 806.94 419.169 812.167 418.092 817.231C416.664 823.945 415.043 830.64 413.79 837.388C413.129 840.945 412.857 844.624 412.032 848.138C411.883 848.772 411.701 849.082 411.24 849.534C410.35 849.57 410.107 849.603 409.28 849.203C411.037 833.261 409.374 816.921 409.56 800.886C412.687 800.478 418.514 799.097 421.38 800.555L421.52 801.99Z"/>
	<path fill="#F2F6E7" d="M313.849 822.469C311.547 831.044 312.748 849.336 313.205 858.501C311.731 861.417 303.042 864.055 299.93 865.572C299.904 865.399 299.876 865.226 299.853 865.052C297.898 850.149 297.761 819.168 307.16 807.278C311.704 801.53 319.012 801.406 325.684 800.716C323.296 803.065 320.915 805.058 317.984 806.695Q317.114 808.552 316.416 810.481Q315.718 812.409 315.198 814.393Q314.677 816.378 314.34 818.401Q314.002 820.424 313.849 822.469Z"/>
	<path fill="#C5C296" d="M499.003 809.21C505.398 807.154 511.808 804.993 518.317 803.325C517.069 805.146 515.73 806.948 514.58 808.831C512.866 807.929 512.372 807.821 510.51 808.428C508.665 809.031 507.211 809.933 505.232 810.05C504.261 810.111 503.406 810.732 502.456 810.804C500.95 810.918 500.146 810.023 499.003 809.21Z"/>
	<path fill="#D0CEA6" d="M471.895 824.693L471.417 824.322C469.784 825.75 469.285 828.877 467.398 829.622C467.426 829.449 467.44 829.274 467.483 829.105C467.649 828.458 472.349 819.366 472.914 818.657C473.371 818.083 474.067 817.728 474.693 817.372C475.665 816.821 475.911 816.765 476.6 815.836C475.655 815.858 474.716 815.906 473.773 815.966C477.29 811.651 493.379 810.456 499.003 809.21C500.146 810.023 500.95 810.918 502.456 810.804C503.406 810.732 504.261 810.111 505.232 810.05C506.383 812.213 507.088 813.579 509.312 814.724L508.368 815.954C509.372 816.84 510.4 816.705 511.725 816.595C514.298 816.38 516.75 815.622 519.154 814.72C517.059 816.751 514.875 818.735 512.93 820.911C514.766 820.612 516.833 820.154 518.692 820.306C520.865 820.482 524.666 822.315 526.518 822.063C529.869 821.608 532.626 817.361 535.873 816.525L536 815.885L535.233 815.298L535.393 813.095C534.205 811.527 532.091 811.011 530.313 810.322C531.341 808.801 532.001 808.141 533.857 807.83C535.048 807.631 535.874 807.719 537.014 808.158L537.113 808.718L536.185 809.293C539.157 809.077 543.395 809.276 546.201 808.353C547.014 808.085 547.696 807.38 548.452 807.136C549.285 806.866 549.559 807.128 550.217 807.6C549.491 808.249 547.573 808.95 547.39 809.753C547.941 809.984 548.511 810.267 549.083 810.437C549.726 809.587 550.063 808.722 551.117 808.466C553.338 807.927 553.708 805.749 555.151 806.22C555.518 807.161 555.465 807.427 555.352 808.399C556.351 809.332 558.221 809.788 559.565 809.847C560.35 809.881 561.082 809.549 561.803 809.294C562.458 809.063 563.12 808.854 563.775 808.62L563.143 809.458L563.974 808.598C563.365 809.275 562.773 809.784 562.036 810.318C562.319 810.953 562.728 811.311 562.388 811.994C561.505 813.771 559.141 815.056 557.795 816.563L558.539 816.71C557.24 818.531 552.851 821.257 552.956 822.094L553.501 822.494C548.317 825.058 542.717 827.574 537.083 828.979L537.825 829.788C542.494 829.644 545.655 826.775 549.953 825.767L549.914 826.278C548.449 827.267 547.039 827.978 545.416 828.675C539.051 830.829 532.72 834.22 526.213 835.77L527.058 835.274C527.903 834.782 530.578 833.811 530.805 833.034C525.492 833.069 503.615 842.17 502.476 842.118C502.136 842.102 501.827 841.91 501.503 841.807C503.758 840.746 516.157 836.34 516.809 835.368C512.981 834.188 498.331 841.406 494.05 843.528C493.245 843.926 492.563 844.154 491.695 844.359L490.575 842.92C490.752 841.696 491.662 841.047 492.508 840.233C492.295 839.126 491.557 838.896 490.687 838.239C488.163 838.671 486.511 841.264 484.145 842.062C479.917 843.487 478.989 841.28 475.105 845.317L475.129 845.801L477.013 844.758C477.762 845.275 478.111 845.709 478.666 846.416L479.392 846.361L478.402 846.361L478.258 847.611L478.206 847.391L477.622 848.237C475.735 848.891 474.643 848.792 472.695 848.432C471.72 848.915 470.992 849.391 470.127 850.051C468.949 850.95 467.941 851.16 466.504 851.366C465.505 850.18 464.145 849.656 462.781 848.99C462.345 843.739 478.217 830.135 481.559 824.512L481.356 823.739C482.683 822.482 482.666 822.407 484.472 822.266L484.547 822.488L483.805 822.946C485.957 822.325 488.177 821.529 490.4 821.246L490.835 821.597L490.299 823.048C491.838 823.541 495.469 821.641 496.987 820.909L497.2 820.368C495.987 820.239 494.799 820.127 493.578 820.09L494.007 819.961L490.963 819.913L490.683 819.587C492.439 818.554 496.547 817.468 497.756 816.159C495.971 816.143 495.09 816.4 493.419 817.045C492.312 817.472 491.283 817.559 490.116 817.659L489.988 817.248C492.047 816.032 494.141 815.041 496.318 814.066C491.772 815.579 487.062 816.859 482.859 819.187C482.179 819.563 481.856 819.641 481.095 819.656L481.093 819.165L484.412 816.593C480.074 816.957 475.918 822.848 471.895 824.693ZM498.536 823.136C493.737 823.919 487.86 825.643 484.991 830.028C484.32 831.055 484.342 831.326 484.553 832.435L486.216 833.059C490.953 832.882 496.737 828.637 499.544 824.848C499.874 824.403 499.908 824.172 500.048 823.697C499.188 822.961 499.69 823.155 498.536 823.136Z"/>
	<path fill="#E1DAAC" d="M558.539 816.71C561.623 814.011 566.39 809.069 570.088 807.58C569.176 809.08 567.829 810.194 566.928 811.655C565.055 814.695 565.361 815.434 562.174 817.679L562.188 817.975L564.167 817.324L564.514 817.951C563.83 818.838 562.993 819.695 562.647 820.767L560.752 821.571L559.666 820.823C557.556 821.247 555.549 821.84 553.501 822.494L552.956 822.094C552.851 821.257 557.24 818.531 558.539 816.71Z"/>
	<path fill="#E1DAAC" d="M505.232 810.05C507.211 809.933 508.665 809.031 510.51 808.428C512.372 807.821 512.866 807.929 514.58 808.831C512.919 810.88 511.341 813.025 509.312 814.724C507.088 813.579 506.383 812.213 505.232 810.05Z"/>
	<path fill="#C5C296" d="M481.356 823.739C478.527 824.464 474.598 826.045 471.895 824.693C475.918 822.848 480.074 816.957 484.412 816.593L481.093 819.165L481.095 819.656C481.856 819.641 482.179 819.563 482.859 819.187C487.062 816.859 491.772 815.579 496.318 814.066C494.141 815.041 492.047 816.032 489.988 817.248L490.116 817.659C491.283 817.559 492.312 817.472 493.419 817.045C495.09 816.4 495.971 816.143 497.756 816.159C496.547 817.468 492.439 818.554 490.683 819.587L490.963 819.913L494.007 819.961L493.578 820.09C494.799 820.127 495.987 820.239 497.2 820.368L496.987 820.909C495.469 821.641 491.838 823.541 490.299 823.048L490.835 821.597L490.4 821.246C488.177 821.529 485.957 822.325 483.805 822.946L484.547 822.488L484.472 822.266C482.666 822.407 482.683 822.482 481.356 823.739Z"/>
	<path fill="#F2F6E7" d="M486.216 833.059L484.553 832.435C484.342 831.326 484.32 831.055 484.991 830.028C487.86 825.643 493.737 823.919 498.536 823.136C499.69 823.155 499.188 822.961 500.048 823.697C499.908 824.172 499.874 824.403 499.544 824.848C496.737 828.637 490.953 832.882 486.216 833.059Z"/>
	<path fill="#172E3D" d="M510.293 851.607C516.56 848.337 523.228 845.675 529.717 842.881Q550.286 834.043 571.081 825.748C571.476 827.218 571.51 828.25 572.934 829.081C573.934 829.665 575.063 830.111 576.123 830.58C585.944 834.532 624.13 845.77 627.734 853.616C627.825 853.813 627.879 854.025 627.951 854.23L627.613 854.523C622.727 852.832 617.992 850.531 613.24 848.485C604.983 844.929 596.602 841.609 588.427 837.873C584.354 836.011 580.451 833.757 576.366 831.941L577.088 832.651C580.15 835.625 583.82 837.86 586.339 841.385C588.785 844.807 589.491 848.745 593.154 851.156C598.493 854.049 604.204 856.592 609.36 859.777C614.85 863.169 630.41 875.014 632.402 880.622C632.455 880.771 632.557 880.937 632.504 881.086L632.28 880.509L630.739 880.722C620.737 872.894 610.883 865.314 600.524 857.951C598.261 856.342 596.131 854.112 593.641 852.906L593.472 853.525C595.429 855.742 597.595 857.999 599.245 860.454C600.927 862.956 601.992 865.629 604.13 867.839C610.884 874.82 619.062 880.253 625.588 887.53C629.313 891.684 631.9 897.85 636.211 901.17C639.356 903.592 643.194 904.658 647.109 904.924C658.287 905.684 668.719 901.687 679.201 898.5C694.171 893.949 708.279 891.267 724.036 892.794C730.585 893.429 737.31 894.786 743.481 897.098C761.275 903.765 778.197 914.625 794.555 924.19Q835.969 948.061 876.129 973.987C886.847 980.809 897.25 988.196 908.02 994.905C924.592 1005.23 942.317 1013.9 959.063 1024L900.232 1024C902.886 1014.54 905.304 1004.72 906.909 995.029L898.345 990.137Q894.25 1007.18 889.33 1024L0 1024L0 879.944C11.8235 880.919 23.6943 881.028 35.542 881.544Q70.2077 883.192 104.891 884.407C151.955 886.142 199.344 888.455 246.428 888.166C247.063 889.343 247.607 890.815 248.784 891.501L248.823 891.951C248.382 893.522 253.718 918.265 254.233 923.141C256.885 948.23 256.213 987.218 248.144 1011.28C256.625 1006.88 262.464 1000.3 265.305 991.123C266.94 985.841 267.473 980.316 268.005 974.838C285.2 973.072 302.123 972.929 319.234 975.52Q331.305 977.298 343.138 980.272C354.374 983.137 381.46 993.484 391.281 991.359C396.44 990.242 403.441 979.677 407.15 975.731C417.159 965.08 428.604 955.984 439.802 946.642C445.358 942.006 451.123 937.514 456.089 932.235C463.198 924.676 468.794 915.329 474.626 906.756C469.899 911.027 466.274 916.122 460.979 919.844C448.277 928.773 436.374 932.068 425.346 944.125C432.102 929.771 448.33 924.957 460.357 916.193C466.341 911.833 471.406 906.364 476.446 900.981C485.704 891.09 510.716 864.589 510.293 851.607Z"/>
	<path fill="#E1DAAC" d="M491.695 844.359C486.274 846.736 481.009 849.59 475.53 851.802C473.914 853.232 472.294 854.771 470.104 855.2C470.905 854.46 471.61 853.753 472.278 852.89L471.958 852.276C470.365 852.024 468.87 851.81 467.255 851.756L466.504 851.366C467.941 851.16 468.949 850.95 470.127 850.051C470.992 849.391 471.72 848.915 472.695 848.432C474.643 848.792 475.735 848.891 477.622 848.237L478.206 847.391L478.258 847.611L478.402 846.361L479.392 846.361L478.666 846.416C478.111 845.709 477.762 845.275 477.013 844.758L475.129 845.801L475.105 845.317C478.989 841.28 479.917 843.487 484.145 842.062C486.511 841.264 488.163 838.671 490.687 838.239C491.557 838.896 492.295 839.126 492.508 840.233C491.662 841.047 490.752 841.696 490.575 842.92L491.695 844.359Z"/>
	<path fill="#F2F6E7" d="M248.144 1011.28C256.213 987.218 256.885 948.23 254.233 923.141C253.718 918.265 248.382 893.522 248.823 891.951L256.679 890.623C259.313 896.92 261.933 903.123 263.665 909.744C268.845 929.535 269.784 954.499 268.005 974.838C267.473 980.316 266.94 985.841 265.305 991.123C262.464 1000.3 256.625 1006.88 248.144 1011.28Z"/>
	<path fill="#172E3D" d="M360.07 892.175C364.217 892.826 374.732 892.271 377.631 894.034L377.61 895.903C377.405 896.014 377.215 896.162 376.994 896.236C371.219 898.172 364.86 895.101 360.07 892.175Z"/>
	<defs>
		<linearGradient id="gradient_0" gradientUnits="userSpaceOnUse" x1="377.19254" y1="979.55603" x2="380.80746" y2="970.94397">
			<stop offset="0" stop-color="#172F3A"/>
			<stop offset="1" stop-color="#243750"/>
		</linearGradient>
	</defs>
	<path fill="url(#gradient_0)" d="M401.547 979.648C401.158 979.8 400.769 979.956 400.374 980.092C392.714 982.728 357.232 973.281 349.284 969.562C356.683 968.875 379.387 975.359 388.327 977.019C392.576 977.808 396.983 977.875 401.162 978.699L401.547 979.648Z"/>
	<path fill="#F3C986" d="M889.33 1024Q894.25 1007.18 898.345 990.137L906.909 995.029C905.304 1004.72 902.886 1014.54 900.232 1024L889.33 1024Z"/>
</svg>
